<svg width="16" height="18" viewBox="0 0 16 18" fill="none" xmlns="http://www.w3.org/2000/svg">
<path fill-rule="evenodd" clip-rule="evenodd" d="M8 5.33337C7.45751 5.33337 6.93724 5.54409 6.55365 5.91916C6.17005 6.29424 5.95455 6.80295 5.95455 7.33339C5.95455 7.86383 6.17005 8.37254 6.55365 8.74761C6.93724 9.12269 7.45751 9.3334 8 9.3334C8.54249 9.3334 9.06276 9.12269 9.44635 8.74761C9.82995 8.37254 10.0455 7.86383 10.0455 7.33339C10.0455 6.80295 9.82995 6.29424 9.44635 5.91916C9.06276 5.54409 8.54249 5.33337 8 5.33337ZM5.58941 4.97635C6.22874 4.35122 7.09585 4.00003 8 4.00003C8.90415 4.00003 9.77126 4.35122 10.4106 4.97635C11.0499 5.60147 11.4091 6.44933 11.4091 7.33339C11.4091 8.21745 11.0499 9.0653 10.4106 9.69043C9.77126 10.3156 8.90415 10.6667 8 10.6667C7.09585 10.6667 6.22874 10.3156 5.58941 9.69043C4.95008 9.0653 4.59091 8.21745 4.59091 7.33339C4.59091 6.44933 4.95008 5.60147 5.58941 4.97635Z" fill="#C19E7B"/>
<path fill-rule="evenodd" clip-rule="evenodd" d="M8 1.33334C6.37254 1.33334 4.81173 1.96549 3.66094 3.09072C2.51014 4.21594 1.86364 5.74208 1.86364 7.33339C1.86364 10.2631 3.43698 12.6047 5.07868 14.2483C5.89523 15.0658 6.71372 15.6948 7.32806 16.1192C7.59896 16.3063 7.82896 16.4528 8 16.5573C8.17104 16.4528 8.40105 16.3063 8.67194 16.1192C9.28628 15.6948 10.1048 15.0658 10.9213 14.2483C12.563 12.6047 14.1364 10.2631 14.1364 7.33339C14.1364 5.74208 13.4899 4.21594 12.3391 3.09072C11.1883 1.96549 9.62747 1.33334 8 1.33334ZM8 17.3335C7.67246 17.9182 7.67222 17.918 7.67195 17.9179L7.6695 17.9166L7.66406 17.9136L7.64591 17.9037C7.63062 17.8953 7.60904 17.8833 7.58158 17.8677C7.52667 17.8366 7.4482 17.7912 7.34954 17.7318C7.1523 17.6131 6.87386 17.438 6.54126 17.2082C5.87719 16.7495 4.99114 16.0689 4.10314 15.1799C2.33575 13.4106 0.5 10.7522 0.5 7.33339C0.5 5.38845 1.29018 3.52318 2.6967 2.1479C4.10322 0.772623 6.01088 0 8 0C9.98912 0 11.8968 0.772623 13.3033 2.1479C14.7098 3.52318 15.5 5.38845 15.5 7.33339C15.5 10.7522 13.6642 13.4106 11.8969 15.1799C11.0089 16.0689 10.1228 16.7495 9.45874 17.2082C9.12614 17.438 8.8477 17.6131 8.65046 17.7318C8.5518 17.7912 8.47333 17.8366 8.41842 17.8677C8.39096 17.8833 8.36938 17.8953 8.3541 17.9037L8.33594 17.9136L8.3305 17.9166L8.32871 17.9175C8.32844 17.9177 8.32754 17.9182 8 17.3335ZM8 17.3335L8.32754 17.9182C8.12348 18.0275 7.87601 18.0272 7.67195 17.9179L8 17.3335Z" fill="#C19E7B"/>
</svg>
