<svg width="33" height="34" viewBox="0 0 33 34" fill="none" xmlns="http://www.w3.org/2000/svg">
<path fill-rule="evenodd" clip-rule="evenodd" d="M16.1863 3.39625C16.1862 3.39637 16.1864 3.39614 16.1863 3.39625L6.21154 14.0354V30.1541C6.21154 30.5597 6.50186 30.75 6.69231 30.75H11.7885V24.0013C11.7885 22.3691 13.0489 20.9055 14.7692 20.9055H18.2308C19.9511 20.9055 21.2115 22.3691 21.2115 24.0013V30.75H26.3077C26.4981 30.75 26.7885 30.5597 26.7885 30.1541V14.0359L16.8112 3.39522C16.7107 3.28801 16.5985 3.25 16.4998 3.25C16.4012 3.25 16.2878 3.28838 16.1863 3.39625ZM28.9484 12.6845L18.6349 1.68522C17.4652 0.437662 15.5345 0.439204 14.3645 1.68418L0.588105 16.3782C0.115929 16.8819 0.141426 17.6729 0.645054 18.1451C1.14868 18.6173 1.93973 18.5918 2.4119 18.0881L3.71154 16.7019V30.1541C3.71154 31.7864 4.97199 33.25 6.69231 33.25H26.3077C28.028 33.25 29.2885 31.7864 29.2885 30.1541V16.7021L30.5881 18.0882C31.0604 18.5918 31.8514 18.6172 32.355 18.145C32.8586 17.6728 32.8841 16.8818 32.4119 16.3782L28.9526 12.6889C28.9512 12.6874 28.9498 12.6859 28.9484 12.6845ZM18.7115 30.75H14.2885V24.0013C14.2885 23.5957 14.5788 23.4055 14.7692 23.4055H18.2308C18.4212 23.4055 18.7115 23.5957 18.7115 24.0013V30.75Z" fill="#C19E7B"/>
</svg>
