<svg width="35" height="34" viewBox="0 0 35 34" fill="none" xmlns="http://www.w3.org/2000/svg">
<path fill-rule="evenodd" clip-rule="evenodd" d="M11.5919 0.855816C12.6363 0.643247 13.7186 0.752619 14.7006 1.1688C15.4982 1.50682 16.1986 2.03394 16.7469 2.70014C17.2953 2.03394 17.9956 1.50682 18.7932 1.1688C19.7752 0.752619 20.8575 0.643247 21.902 0.855816C22.9462 1.06834 23.9015 1.59217 24.6484 2.35645C25.3951 3.12041 25.9005 4.09033 26.1049 5.14208C26.3094 6.1937 26.2047 7.28403 25.803 8.27634C25.6793 8.58187 25.529 8.87417 25.3546 9.15H31.4074C33.0957 9.15 34.4167 10.5432 34.4167 12.2V14.6C34.4167 16.0324 33.4294 17.2677 32.071 17.5761V29.6C32.071 30.5589 31.6989 31.4842 31.0279 32.1708C30.3559 32.8583 29.4383 33.25 28.4753 33.25H6.19136C5.22837 33.25 4.31077 32.8583 3.63877 32.1708C2.96772 31.4842 2.59568 30.5589 2.59568 29.6V17.5761C1.23729 17.2677 0.25 16.0324 0.25 14.6V12.2C0.25 10.5432 1.57097 9.15 3.25926 9.15H8.13927C7.96481 8.87417 7.81454 8.58187 7.69085 8.27634C7.28913 7.28403 7.18444 6.1937 7.38889 5.14208C7.59336 4.09033 8.09873 3.12041 8.8454 2.35645C9.59238 1.59217 10.5476 1.06834 11.5919 0.855816ZM12.642 9.15H15.4969V6.2C15.4969 5.61026 15.3259 5.03603 15.0085 4.55009C14.6914 4.06445 14.2436 3.69035 13.7251 3.47062C13.207 3.25102 12.6385 3.19405 12.0904 3.3056C11.5421 3.41718 11.0345 3.69337 10.6333 4.10386C10.2318 4.51466 9.95525 5.04148 9.84294 5.61917C9.73061 6.19699 9.7885 6.79562 10.0082 7.33821C10.2277 7.88056 10.5977 8.33951 11.0669 8.66027C11.5357 8.98079 12.0838 9.15 12.642 9.15ZM15.4969 11.65H3.25926C3.00533 11.65 2.75 11.8696 2.75 12.2V14.6C2.75 14.9304 3.00533 15.15 3.25926 15.15H15.4969V11.65ZM17.9969 15.15V11.65H31.4074C31.6613 11.65 31.9167 11.8696 31.9167 12.2V14.6C31.9167 14.9304 31.6613 15.15 31.4074 15.15H17.9969ZM15.4969 17.65H5.09568V29.6C5.09568 29.9141 5.21791 30.2098 5.42665 30.4233C5.63446 30.636 5.91012 30.75 6.19136 30.75H15.4969V17.65ZM17.9969 30.75V17.65H29.571V29.6C29.571 29.9141 29.4488 30.2098 29.24 30.4233C29.0322 30.636 28.7565 30.75 28.4753 30.75H17.9969ZM17.9969 9.15V6.2C17.9969 5.61026 18.168 5.03603 18.4853 4.55009C18.8025 4.06445 19.2502 3.69035 19.7687 3.47062C20.2869 3.25102 20.8553 3.19405 21.4034 3.3056C21.9517 3.41718 22.4593 3.69337 22.8605 4.10386C23.262 4.51466 23.5386 5.04148 23.6509 5.61917C23.7632 6.19699 23.7053 6.79562 23.4857 7.33821C23.2661 7.88056 22.8962 8.33951 22.427 8.66027C21.9581 8.98079 21.41 9.15 20.8519 9.15H17.9969Z" fill="#C19E7B"/>
</svg>
