<svg width="34" height="34" viewBox="0 0 34 34" fill="none" xmlns="http://www.w3.org/2000/svg">
<path fill-rule="evenodd" clip-rule="evenodd" d="M25.3391 3.6752C24.2926 3.31917 23.1836 3.18447 22.0824 3.27962C20.9812 3.37477 19.9117 3.69771 18.9418 4.22797C17.9719 4.75823 17.1226 5.48427 16.4479 6.36008C15.7731 7.23589 15.2876 8.24238 15.0221 9.31576C14.7566 10.3891 14.7169 11.506 14.9055 12.5955C15.1046 13.7515 14.876 15.1179 13.8963 16.0978L3.89785 26.0989C3.48458 26.5113 3.25 27.0754 3.25 27.6635V30.75H6.51923V28.5375C6.51923 27.8472 7.07887 27.2875 7.76923 27.2875H9.98077V25.0751C9.98077 24.3847 10.5404 23.8251 11.2308 23.8251H14.1744L17.8975 20.101C18.8773 19.121 20.2424 18.892 21.3984 19.0912L21.4006 19.0916C22.5473 19.2913 23.7238 19.2376 24.8476 18.9344C25.9714 18.6312 27.0153 18.0857 27.9062 17.3363C28.797 16.5868 29.5132 15.6515 30.0044 14.5959C30.4956 13.5405 30.75 12.3905 30.75 11.2263C30.749 10.1206 30.5185 9.0271 30.0729 8.01517C29.6273 7.00325 28.9764 6.09498 28.1615 5.3479C27.3466 4.60082 26.3855 4.03122 25.3391 3.6752ZM21.8672 0.788899C23.3135 0.663931 24.77 0.840845 26.1443 1.30842C27.5186 1.776 28.7808 2.52405 29.851 3.50512C30.9211 4.4862 31.7758 5.67892 32.3609 7.00768C32.946 8.33644 33.2487 9.77227 33.25 11.2242C33.2502 12.7531 32.9161 14.2645 32.271 15.6507C31.6259 17.0368 30.6855 18.2651 29.5156 19.2493C28.3458 20.2335 26.9748 20.9498 25.4989 21.3481C24.0233 21.7462 22.4785 21.8167 20.9728 21.5547C20.397 21.4558 19.9287 21.6053 19.6655 21.8685L15.5763 25.9589C15.3419 26.1933 15.0239 26.3251 14.6923 26.3251H12.4808V28.5375C12.4808 29.2279 11.9211 29.7875 11.2308 29.7875H9.01923V32C9.01923 32.6904 8.45959 33.25 7.76923 33.25H2C1.30964 33.25 0.75 32.6904 0.75 32V27.6635C0.75 26.4147 1.24531 25.2146 2.12985 24.3314L12.1283 14.3302C12.3917 14.0667 12.5413 13.5977 12.442 13.0209C12.1945 11.5907 12.2467 10.1245 12.5952 8.71546C12.9439 7.30604 13.5814 5.9844 14.4674 4.83431C15.3535 3.68423 16.4688 2.73077 17.7426 2.03438C19.0164 1.33799 20.4209 0.913868 21.8672 0.788899ZM21.5192 6.60865C21.5192 5.9183 22.0789 5.35865 22.7692 5.35865C24.3249 5.35865 25.8169 5.97682 26.9168 7.07706C28.0167 8.17729 28.6346 9.66945 28.6346 11.2253C28.6346 11.9156 28.075 12.4753 27.3846 12.4753C26.6943 12.4753 26.1346 11.9156 26.1346 11.2253C26.1346 10.3323 25.78 9.47593 25.1488 8.84459C24.5176 8.21327 23.6617 7.85865 22.7692 7.85865C22.0789 7.85865 21.5192 7.29901 21.5192 6.60865Z" fill="#C19E7B"/>
</svg>
