<svg width="208" height="40" viewBox="0 0 208 40" fill="none" xmlns="http://www.w3.org/2000/svg">
<path d="M18.9994 1.13323C25.0947 1.13323 30.3277 5.2818 30.3277 10.38C30.3277 15.5033 25.0947 19.6518 18.9994 19.6518C13.2609 19.6518 8.29553 15.9781 7.76033 11.2547H2.97331V19.5769H0V1.20821H2.97331V9.00552H7.8198C8.65232 4.55705 13.4691 1.13323 18.9994 1.13323ZM18.9994 3.63237C14.2421 3.63237 10.6742 6.95622 10.6742 10.38C10.6742 14.4037 14.8963 17.1527 18.9994 17.1527C23.8162 17.1527 27.3544 13.8039 27.3544 10.38C27.3544 6.28146 23.0134 3.63237 18.9994 3.63237Z" fill="#C19E7B"/>
<path d="M50.4129 13.454H46.5773V19.5769H43.604V13.454H39.7684C39.1738 13.504 38.8764 13.8538 38.5791 14.4286L36.9438 17.4026C36.141 18.8521 34.6841 19.6518 33.0785 19.6518L31.9189 19.4019V17.1527H33.0785C33.5542 17.1527 33.9705 16.8028 34.3273 16.178L35.9626 13.2041C36.141 12.8542 36.7951 12.3544 37.0627 12.2794C36.7654 12.1544 36.0815 11.6546 35.9031 11.2547L34.8922 9.0555C34.5949 8.43072 34.1192 8.08084 33.6434 8.08084H32.4838V5.83161L33.6434 5.5817C35.249 5.5817 36.7357 6.38142 37.5087 7.83092L38.5197 10.0302C38.7873 10.63 39.263 11.0798 39.709 11.1298H43.604V5.5817H46.5773V11.1298H50.4724C50.8886 11.0798 51.3941 10.63 51.6617 10.0302L52.6726 7.83092C53.4457 6.38142 54.9323 5.5817 56.5379 5.5817L57.6975 5.83161V8.08084H56.5379C56.0622 8.08084 55.5864 8.43072 55.2891 9.0555L54.2782 11.2547C54.0998 11.6546 53.3862 12.1544 53.1186 12.2794C53.3862 12.3544 54.0106 12.8542 54.2187 13.2041L55.854 16.178C56.1811 16.8028 56.6271 17.1527 57.1028 17.1527H58.2624V19.4019L57.1028 19.6518C55.4675 19.6518 54.0403 18.8521 53.2375 17.4026L51.6022 14.4286C51.2751 13.8538 50.8886 13.504 50.4129 13.454Z" fill="#C19E7B"/>
<path d="M63.3268 19.5769H60.3535V5.5817H63.3268V11.1298H72.4846V5.5817H75.4579V19.5769H72.4846V13.454H63.3268V19.5769Z" fill="#C19E7B"/>
<path d="M77.551 19.5769V5.5817H80.5244V10.63H86.5602C89.5037 10.63 91.9121 12.6043 91.9121 15.0784C91.9121 17.5776 89.5037 19.5769 86.5602 19.5769H77.551ZM93.9042 19.5769V5.5817H96.8775V19.5769H93.9042ZM80.5244 17.1527H86.5602C87.9279 17.1527 89.028 16.228 89.028 15.0784C89.028 13.9288 87.9279 13.0541 86.5602 13.0541H80.5244V17.1527Z" fill="#C19E7B"/>
<path d="M108.86 0.833334H111.06C111.06 2.70769 109.187 4.05722 106.511 4.05722C103.835 4.05722 101.962 2.70769 101.962 0.833334H104.132C104.222 1.90796 104.935 2.35781 106.511 2.35781C108.087 2.35781 108.771 1.93296 108.86 0.833334ZM114.063 19.5769H111.09V8.08084H110.138L104.192 19.5769H98.9589V5.5817H101.932V17.0777H102.616L108.622 5.5817H114.063V19.5769Z" fill="#C19E7B"/>
<path d="M139.134 15.3283C139.134 17.6775 136.875 19.5769 134.08 19.5769H124.179V5.5817H133.485C136.131 5.5817 138.272 7.35609 138.272 9.55533C138.272 10.3551 137.707 11.5546 136.666 12.0045C137.915 12.4543 139.134 13.9288 139.134 15.3283ZM134.08 13.529H127.152V17.1527H134.08C135.239 17.1527 136.161 16.278 136.161 15.3283C136.161 14.3537 135.239 13.529 134.08 13.529ZM133.485 8.00586H127.152V11.1048H133.842C134.555 11.0548 135.299 10.405 135.299 9.55533C135.299 8.73061 134.466 8.00586 133.485 8.00586Z" fill="#C19E7B"/>
<path d="M149.23 17.2277C152.084 17.2277 153.541 15.9781 154.047 15.4783L155.86 17.4026C155.503 17.7775 153.511 19.6518 149.23 19.6518C144.591 19.6518 140.875 16.5529 140.875 12.5543C140.875 8.68063 144.532 5.50672 149.17 5.50672C153.63 5.50672 157.228 8.55567 157.228 12.5543C157.228 12.8542 157.198 13.279 157.169 13.454H143.937C144.473 15.6032 146.613 17.2277 149.23 17.2277ZM149.17 8.00586C146.673 8.00586 144.651 9.3304 144.056 11.1298H153.987C153.63 9.45536 151.608 8.00586 149.17 8.00586Z" fill="#C19E7B"/>
<path d="M167.203 19.5769H164.23V7.9059H158.283V5.5817H173.15V7.9059H167.203V19.5769Z" fill="#C19E7B"/>
<path d="M182.347 17.2277C185.202 17.2277 186.659 15.9781 187.164 15.4783L188.978 17.4026C188.621 17.7775 186.629 19.6518 182.347 19.6518C177.709 19.6518 173.992 16.5529 173.992 12.5543C173.992 8.68063 177.65 5.50672 182.288 5.50672C186.748 5.50672 190.346 8.55567 190.346 12.5543C190.346 12.8542 190.316 13.279 190.286 13.454H177.055C177.59 15.6032 179.731 17.2277 182.347 17.2277ZM182.288 8.00586C179.79 8.00586 177.768 9.3304 177.174 11.1298H187.105C186.748 9.45536 184.726 8.00586 182.288 8.00586Z" fill="#C19E7B"/>
<path d="M200.388 5.50672C204.491 5.50672 208 8.68063 208 12.5793C208 16.4779 204.492 19.6518 199.496 19.6518C198.337 19.6518 196.761 19.327 195.274 18.7022V25H192.301V5.5817H194.68L195.036 7.08118C196.612 6.18149 198.842 5.50672 200.388 5.50672ZM199.794 8.00586C198.158 8.03085 196.761 8.53068 195.274 9.38039V16.0031C196.761 16.8028 198.129 17.1527 199.794 17.1527C202.797 17.1527 205.027 15.1284 205.027 12.5793C205.027 10.0801 202.826 8.00586 199.794 8.00586Z" fill="#C19E7B"/>
<path d="M184.889 34.5833H208V35.4167H184.889V34.5833Z" fill="#555555"/>
<path d="M0 34.5833H23.1111V35.4167H0V34.5833Z" fill="#555555"/>
<path d="M40.77 35.4875H38.5664V38.9583H36.8582V35.4875H34.6546C34.313 35.5158 34.1421 35.7142 33.9713 36.04L33.0318 37.7258C32.5706 38.5475 31.7336 39.0008 30.8111 39.0008L30.1449 38.8592V37.5842H30.8111C31.0844 37.5842 31.3236 37.3858 31.5286 37.0317L32.4681 35.3458C32.5706 35.1475 32.9464 34.8642 33.1001 34.8217C32.9293 34.7508 32.5364 34.4675 32.4339 34.2408L31.8531 32.9942C31.6823 32.64 31.409 32.4417 31.1357 32.4417H30.4695V31.1667L31.1357 31.025C32.0581 31.025 32.9122 31.4783 33.3564 32.3L33.9372 33.5467C34.0909 33.8867 34.3642 34.1417 34.6204 34.17H36.8582V31.025H38.5664V34.17H40.8042C41.0433 34.1417 41.3337 33.8867 41.4875 33.5467L42.0683 32.3C42.5124 31.4783 43.3665 31.025 44.2889 31.025L44.9551 31.1667V32.4417H44.2889C44.0156 32.4417 43.7423 32.64 43.5715 32.9942L42.9907 34.2408C42.8882 34.4675 42.4782 34.7508 42.3245 34.8217C42.4782 34.8642 42.8369 35.1475 42.9565 35.3458L43.896 37.0317C44.0839 37.3858 44.3402 37.5842 44.6135 37.5842H45.2797V38.8592L44.6135 39.0008C43.674 39.0008 42.854 38.5475 42.3928 37.7258L41.4533 36.04C41.2654 35.7142 41.0433 35.5158 40.77 35.4875Z" fill="#555555"/>
<path d="M55.5004 38.9583H53.7922V32.3425H53.2968L49.8121 38.9583H46.8227V31.025H48.5309V37.6408H48.8725L52.3915 31.025H55.5004V38.9583Z" fill="#555555"/>
<path d="M58.5649 32.2008V31.025H66.286V38.9583H64.5778V32.3425H61.281L59.9315 37.7258C59.7265 38.5617 58.6332 39.0008 57.7108 39.0008L56.8738 38.8592V37.5842H57.7108C57.9841 37.5842 58.3428 37.3858 58.4283 37.0317L59.5898 32.3425L58.5649 32.2008Z" fill="#555555"/>
<path d="M72.7628 30.9825C75.4106 30.9825 77.7167 32.7817 77.7167 34.9775C77.7167 37.2017 75.4106 39.0008 72.7628 39.0008C70.098 39.0008 67.7919 37.2017 67.7919 34.9775C67.7919 32.7817 70.098 30.9825 72.7628 30.9825ZM72.7628 32.3992C71.0205 32.3992 69.5001 33.5608 69.5001 34.9775C69.5001 36.4225 71.0205 37.5842 72.7628 37.5842C74.5052 37.5842 76.0084 36.4225 76.0084 34.9775C76.0084 33.5608 74.5052 32.3992 72.7628 32.3992Z" fill="#555555"/>
<path d="M84.5781 28.3333H85.8421C85.8421 29.3958 84.766 30.1608 83.2286 30.1608C81.6912 30.1608 80.615 29.3958 80.615 28.3333H81.862C81.9132 28.9425 82.3232 29.1975 83.2286 29.1975C84.1339 29.1975 84.5268 28.9567 84.5781 28.3333ZM87.5674 38.9583H85.8592V32.4417H85.3126L81.8962 38.9583H78.8897V31.025H80.5979V37.5417H80.9908L84.4414 31.025H87.5674V38.9583Z" fill="#555555"/>
<path d="M98.6572 35.4875H95.7703V38.9583H94.0621V31.025H95.7703V34.17H98.6914C98.9305 34.1417 99.2209 33.8867 99.3746 33.5467L99.9554 32.3C100.4 31.4783 101.254 31.025 102.176 31.025L102.842 31.1667V32.4417H102.176C101.903 32.4417 101.629 32.64 101.459 32.9942L100.878 34.2408C100.775 34.4675 100.365 34.7508 100.212 34.8217C100.365 34.8642 100.724 35.1475 100.844 35.3458L101.783 37.0317C101.971 37.3858 102.227 37.5842 102.501 37.5842H103.167V38.8592L102.501 39.0008C101.561 39.0008 100.741 38.5475 100.28 37.7258L99.3405 36.04C99.1526 35.7142 98.9305 35.5158 98.6572 35.4875Z" fill="#555555"/>
<path d="M109.146 30.9825C111.794 30.9825 114.1 32.7817 114.1 34.9775C114.1 37.2017 111.794 39.0008 109.146 39.0008C106.482 39.0008 104.176 37.2017 104.176 34.9775C104.176 32.7817 106.482 30.9825 109.146 30.9825ZM109.146 32.3992C107.404 32.3992 105.884 33.5608 105.884 34.9775C105.884 36.4225 107.404 37.5842 109.146 37.5842C110.889 37.5842 112.392 36.4225 112.392 34.9775C112.392 33.5608 110.889 32.3992 109.146 32.3992Z" fill="#555555"/>
<path d="M116.982 38.9583H115.273V31.025H118.451L120.09 34.8075H120.535L122.192 31.025H125.369V38.9583H123.661V32.3425H123.182L121.56 36.125H119.083L117.46 32.3425H116.982V38.9583Z" fill="#555555"/>
<path d="M128.788 38.9583H127.08V31.025H135.758V38.9583H134.049V32.3425H128.788V38.9583Z" fill="#555555"/>
<path d="M138.822 32.2008V31.025H146.543V38.9583H144.835V32.3425H141.538L140.189 37.7258C139.984 38.5617 138.891 39.0008 137.968 39.0008L137.131 38.8592V37.5842H137.968C138.241 37.5842 138.6 37.3858 138.686 37.0317L139.847 32.3425L138.822 32.2008Z" fill="#555555"/>
<path d="M152.353 37.6267C153.993 37.6267 154.83 36.9183 155.12 36.635L156.162 37.7258C155.957 37.9383 154.813 39.0008 152.353 39.0008C149.688 39.0008 147.553 37.2442 147.553 34.9775C147.553 32.7817 149.654 30.9825 152.319 30.9825C154.881 30.9825 156.948 32.7108 156.948 34.9775C156.948 35.1475 156.931 35.3883 156.914 35.4875H149.312C149.62 36.7058 150.85 37.6267 152.353 37.6267ZM152.319 32.3992C150.884 32.3992 149.722 33.15 149.381 34.17H155.086C154.881 33.2208 153.719 32.3992 152.319 32.3992Z" fill="#555555"/>
<path d="M163.008 35.4875H160.121V38.9583H158.413V31.025H160.121V34.17H163.042C163.281 34.1417 163.572 33.8867 163.726 33.5467L164.306 32.3C164.75 31.4783 165.605 31.025 166.527 31.025L167.193 31.1667V32.4417H166.527C166.254 32.4417 165.98 32.64 165.81 32.9942L165.229 34.2408C165.126 34.4675 164.716 34.7508 164.563 34.8217C164.716 34.8642 165.075 35.1475 165.195 35.3458L166.134 37.0317C166.322 37.3858 166.578 37.5842 166.852 37.5842H167.518V38.8592L166.852 39.0008C165.912 39.0008 165.092 38.5475 164.631 37.7258L163.691 36.04C163.503 35.7142 163.281 35.5158 163.008 35.4875Z" fill="#555555"/>
<path d="M173.412 32.3992C171.67 32.3992 170.235 33.4192 170.235 34.9775C170.235 36.5642 171.67 37.5842 173.412 37.5842C175.564 37.5842 176.435 36.6067 176.435 36.635L177.512 37.7542C177.426 37.825 176.008 39.0008 173.412 39.0008C170.747 39.0008 168.526 37.3433 168.526 34.9775C168.526 32.64 170.747 30.9825 173.412 30.9825C175.581 30.9825 176.914 31.7758 176.965 31.8042V33.2067H175.718L175.479 32.7392C175.035 32.5833 174.317 32.3992 173.412 32.3992Z" fill="#555555"/>
</svg>
