<svg width="18" height="14" viewBox="0 0 18 14" fill="none" xmlns="http://www.w3.org/2000/svg">
<path fill-rule="evenodd" clip-rule="evenodd" d="M0.753154 0.745547C1.23539 0.268181 1.88944 0 2.57143 0H15.4286C16.1106 0 16.7646 0.268181 17.2468 0.745547C17.7291 1.22291 18 1.87036 18 2.54545V2.75157V11.4545C18 12.1296 17.7291 12.7771 17.2468 13.2545C16.7646 13.7318 16.1106 14 15.4286 14H2.57143C1.88944 14 1.23539 13.7318 0.753154 13.2545C0.270918 12.7771 0 12.1296 0 11.4545V2.75298V2.54545C0 1.87036 0.270918 1.22291 0.753154 0.745547ZM1.28571 2.54545V2.75248C1.28571 2.75239 1.28571 2.75258 1.28571 2.75248C1.28574 2.96968 1.34191 3.18361 1.4489 3.37325C1.55587 3.56286 1.71008 3.72223 1.89685 3.83617L8.32542 7.75108C8.52816 7.8747 8.76189 7.94033 9 7.94033C9.23811 7.94033 9.47155 7.87488 9.67429 7.75126L16.1029 3.83551C16.2896 3.72156 16.4441 3.56203 16.5511 3.3724C16.6581 3.18277 16.7143 2.96919 16.7143 2.75199C16.7143 2.7519 16.7143 2.75209 16.7143 2.75199V2.54545C16.7143 2.20791 16.5788 1.88418 16.3377 1.6455C16.0966 1.40682 15.7696 1.27273 15.4286 1.27273H2.57143C2.23044 1.27273 1.90341 1.40682 1.66229 1.6455C1.42117 1.88418 1.28571 2.20791 1.28571 2.54545ZM16.7143 4.95745L10.3486 8.83492C10.3485 8.83497 10.3487 8.83487 10.3486 8.83492C9.94315 9.08205 9.47613 9.21306 9 9.21306C8.52389 9.21306 8.05714 9.08221 7.65172 8.8351C7.65163 8.83504 7.65182 8.83516 7.65172 8.8351L1.28571 4.95829V11.4545C1.28571 11.7921 1.42117 12.1158 1.66229 12.3545C1.90341 12.5932 2.23044 12.7273 2.57143 12.7273H15.4286C15.7696 12.7273 16.0966 12.5932 16.3377 12.3545C16.5788 12.1158 16.7143 11.7921 16.7143 11.4545V4.95745Z" fill="#C19E7B"/>
</svg>
