<svg width="34" height="28" viewBox="0 0 34 28" fill="none" xmlns="http://www.w3.org/2000/svg">
<path fill-rule="evenodd" clip-rule="evenodd" d="M3.73077 0.083313C2.09532 0.083313 0.75 1.40137 0.75 3.04907V17.9189C0.75 18.709 1.06671 19.4646 1.62691 20.0199C2.18673 20.5749 2.94372 20.8847 3.73077 20.8847H30.2692C31.9047 20.8847 33.25 19.5666 33.25 17.9189V3.04907C33.25 1.40137 31.9047 0.083313 30.2692 0.083313H3.73077ZM5.55533 2.58331C5.52864 3.18288 5.27664 3.75052 4.84976 4.17369C4.42101 4.59872 3.84931 4.84519 3.25 4.86907V16.0989C3.84931 16.1228 4.42101 16.3693 4.84976 16.7943C5.27664 17.2175 5.52864 17.7851 5.55533 18.3847H28.4447C28.4714 17.7851 28.7234 17.2175 29.1502 16.7943C29.579 16.3693 30.1507 16.1228 30.75 16.0989V4.86909C29.5116 4.82029 28.4991 3.83293 28.4446 2.58331H5.55533ZM17 7.15866C16.1039 7.15866 15.2468 7.51163 14.6165 8.13647C13.9865 8.76095 13.6346 9.6056 13.6346 10.484C13.6346 11.3624 13.9865 12.2071 14.6165 12.8315C15.2468 13.4564 16.1039 13.8093 17 13.8093C17.8961 13.8093 18.7532 13.4564 19.3835 12.8315C20.0135 12.2071 20.3654 11.3624 20.3654 10.484C20.3654 9.6056 20.0135 8.76095 19.3835 8.13647C18.7532 7.51163 17.8961 7.15866 17 7.15866ZM12.8564 6.36102C13.9572 5.26977 15.4479 4.65866 17 4.65866C18.5521 4.65866 20.0428 5.26977 21.1436 6.36102C22.2448 7.45263 22.8654 8.93549 22.8654 10.484C22.8654 12.0325 22.2448 13.5154 21.1436 14.607C20.0428 15.6982 18.5521 16.3093 17 16.3093C15.4479 16.3093 13.9572 15.6982 12.8564 14.607C11.7552 13.5154 11.1346 12.0325 11.1346 10.484C11.1346 8.93549 11.7552 7.45263 12.8564 6.36102ZM6.51923 10.484C6.51923 9.79365 7.07888 9.234 7.76923 9.234H7.78154C8.47189 9.234 9.03154 9.79365 9.03154 10.484V10.4962C9.03154 11.1866 8.47189 11.7462 7.78154 11.7462H7.76923C7.07888 11.7462 6.51923 11.1866 6.51923 10.4962V10.484ZM24.9808 10.484C24.9808 9.79365 25.5404 9.234 26.2308 9.234H26.2431C26.9334 9.234 27.4931 9.79365 27.4931 10.484V10.4962C27.4931 11.1866 26.9334 11.7462 26.2431 11.7462H26.2308C25.5404 11.7462 24.9808 11.1866 24.9808 10.4962V10.484ZM25.9773 27.4773C18.1624 25.3727 10.0993 24.3097 2.00101 24.3162C1.31065 24.3168 0.750558 23.7576 0.75 23.0672C0.749443 22.3769 1.30864 21.8168 1.99899 21.8162C10.3177 21.8095 18.6002 22.9015 26.6281 25.0635C26.9886 25.1608 27.2885 24.8886 27.2885 24.5989V23.0662C27.2885 22.3758 27.8481 21.8162 28.5385 21.8162C29.2288 21.8162 29.7885 22.3758 29.7885 23.0662V24.5989C29.7885 26.6092 27.8537 27.9839 25.9773 27.4773Z" fill="#C19E7B"/>
</svg>
