<svg width="12" height="12" viewBox="0 0 12 12" fill="none" xmlns="http://www.w3.org/2000/svg">
<path fill-rule="evenodd" clip-rule="evenodd" d="M0 1.71429C0 1.25963 0.180612 0.823594 0.502103 0.502103C0.823594 0.180612 1.25963 0 1.71429 0H2.49829C2.98971 0 3.41829 0.334857 3.53771 0.811429L4.16914 3.33886C4.22031 3.54343 4.20998 3.75855 4.13943 3.95727C4.06889 4.15599 3.94127 4.32948 3.77257 4.456L3.03371 5.01029C2.95657 5.068 2.94 5.15257 2.96171 5.21143C3.28422 6.08849 3.79348 6.88497 4.45426 7.54575C5.11503 8.20652 5.91151 8.71578 6.78857 9.03829C6.84743 9.06 6.93143 9.04343 6.98971 8.96629L7.544 8.22743C7.67052 8.05873 7.84401 7.93111 8.04273 7.86057C8.24145 7.79002 8.45657 7.77969 8.66114 7.83086L11.1886 8.46229C11.6651 8.58171 12 9.01029 12 9.50229V10.2857C12 10.7404 11.8194 11.1764 11.4979 11.4979C11.1764 11.8194 10.7404 12 10.2857 12H9C4.02971 12 0 7.97029 0 3V1.71429Z" fill="#C19E7B"/>
</svg>
