<svg width="15" height="16" viewBox="0 0 15 16" fill="none" xmlns="http://www.w3.org/2000/svg">
<path fill-rule="evenodd" clip-rule="evenodd" d="M2.01678 1.50696C1.77102 1.37316 1.47152 1.54921 1.47152 1.82672V14.1758C1.47151 14.2392 1.48816 14.3016 1.51983 14.3567C1.5515 14.4117 1.59709 14.4577 1.65211 14.4899C1.70714 14.5222 1.76969 14.5397 1.83362 14.5407C1.8975 14.5417 1.96054 14.5262 2.01653 14.4957C2.0165 14.4957 2.01657 14.4957 2.01653 14.4957L13.3374 8.32116C13.3952 8.28969 13.4437 8.24325 13.4772 8.187C13.5108 8.13076 13.5285 8.0666 13.5285 8.00125C13.5285 7.9359 13.5108 7.87175 13.4772 7.81551C13.4437 7.75926 13.3955 7.71299 13.3377 7.68152L2.01678 1.50696C2.01681 1.50697 2.01675 1.50694 2.01678 1.50696ZM7.5145e-09 1.82672C7.5145e-09 0.438795 1.49961 -0.43969 2.72536 0.228033L14.0463 6.40258C14.3351 6.55991 14.5759 6.79129 14.7437 7.07251C14.9115 7.35374 15 7.6745 15 8.00125C15 8.32801 14.9115 8.64877 14.7437 8.93C14.5759 9.21122 14.3351 9.4426 14.0463 9.59993L2.72569 15.7743C2.44558 15.927 2.13008 16.0048 1.81048 15.9998C1.49087 15.9948 1.17809 15.9073 0.902972 15.7459C0.627849 15.5846 0.399883 15.3549 0.241542 15.0795C0.0832198 14.8042 -2.88781e-05 14.4927 7.5145e-09 14.1758C7.5145e-09 14.1757 7.5145e-09 14.1758 7.5145e-09 14.1758V1.82672Z" fill="white"/>
</svg>
