<svg width="18" height="16" viewBox="0 0 18 16" fill="none" xmlns="http://www.w3.org/2000/svg">
<path d="M1.10355 6.96804C1.10355 6.96804 9.06452 3.45574 11.8255 2.21897C12.8839 1.72431 16.4733 0.141238 16.4733 0.141238C16.4733 0.141238 18.1299 -0.551294 17.9918 1.13064C17.9458 1.82324 17.5777 4.2472 17.2095 6.8691C16.6573 10.5793 16.0591 14.6358 16.0591 14.6358C16.0591 14.6358 15.9671 15.7736 15.1848 15.9715C14.4025 16.1694 13.114 15.279 12.8839 15.081C12.6998 14.9327 9.43264 12.7065 8.2362 11.6182C7.91406 11.3214 7.54595 10.7278 8.28218 10.0352C9.93883 8.40267 11.9175 6.37444 13.114 5.08824C13.6662 4.49457 14.2184 3.10944 11.9175 4.79137C8.65036 7.21541 5.42916 9.49101 5.42916 9.49101C5.42916 9.49101 4.69287 9.98567 3.31237 9.54044C1.93181 9.09527 0.321209 8.5016 0.321209 8.5016C0.321209 8.5016 -0.783137 7.75957 1.10355 6.96804Z" fill="#C19E7B"/>
</svg>
