<svg width="20" height="20" viewBox="0 0 20 20" fill="none" xmlns="http://www.w3.org/2000/svg">
<path d="M0.00012207 20L1.43624 14.6692C0.278046 12.5926 -0.0899224 10.1694 0.399853 7.84424C0.889629 5.51906 2.20429 3.4479 4.10261 2.01082C6.00092 0.573734 8.35555 -0.132879 10.7344 0.0206447C13.1133 0.174168 15.3568 1.17753 17.0533 2.84661C18.7498 4.5157 19.7855 6.73854 19.9703 9.10725C20.1551 11.476 19.4766 13.8316 18.0594 15.742C16.6422 17.6524 14.5813 18.9894 12.2548 19.5076C9.92834 20.0258 7.49242 19.6904 5.39403 18.5631L0.00012207 20ZM5.65411 16.5683L5.9877 16.7655C7.50761 17.6633 9.28284 18.0349 11.0367 17.8222C12.7907 17.6096 14.4247 16.8246 15.6843 15.5898C16.9439 14.3549 17.7582 12.7394 18.0004 10.9951C18.2425 9.2508 17.899 7.47565 17.0232 5.94627C16.1474 4.4169 14.7886 3.21922 13.1585 2.53987C11.5285 1.86052 9.71872 1.73766 8.01128 2.19045C6.30385 2.64323 4.79466 3.64622 3.71889 5.04311C2.64312 6.44 2.0612 8.15233 2.06383 9.91325C2.0624 11.3733 2.46756 12.8052 3.2342 14.0494L3.4434 14.3931L2.64054 17.3684L5.65411 16.5683Z" fill="#C19E7B"/>
<path fill-rule="evenodd" clip-rule="evenodd" d="M13.7394 11.2821C13.544 11.1249 13.3152 11.0142 13.0704 10.9586C12.8257 10.9029 12.5714 10.9037 12.327 10.9609C11.9598 11.113 11.7225 11.6878 11.4853 11.9752C11.4352 12.0441 11.3617 12.0924 11.2785 12.1111C11.1953 12.1297 11.1081 12.1175 11.0333 12.0766C9.68894 11.5514 8.56207 10.5883 7.83574 9.34361C7.77379 9.26594 7.74447 9.16732 7.75395 9.06852C7.76344 8.96972 7.81098 8.87845 7.88658 8.81391C8.15122 8.55259 8.34553 8.22893 8.45153 7.87286C8.47506 7.4801 8.38485 7.08888 8.19165 6.74585C8.04229 6.26493 7.75804 5.8367 7.37249 5.51177C7.17363 5.42256 6.95313 5.39265 6.73761 5.42564C6.52209 5.45864 6.32074 5.55313 6.15786 5.69773C5.87509 5.94107 5.65064 6.24459 5.50105 6.58592C5.35146 6.92725 5.28053 7.2977 5.2935 7.67C5.29437 7.87906 5.32093 8.08723 5.37259 8.28985C5.50377 8.77667 5.70551 9.24177 5.97143 9.67044C6.16328 9.99881 6.37261 10.3167 6.59851 10.6228C7.33268 11.628 8.25555 12.4816 9.31589 13.136C9.84798 13.4686 10.4167 13.7389 11.0107 13.9418C11.6278 14.2208 12.3091 14.3279 12.9824 14.2517C13.3659 14.1938 13.7294 14.0428 14.0407 13.8119C14.352 13.5809 14.6016 13.2772 14.7676 12.9275C14.8651 12.7162 14.8947 12.48 14.8523 12.2513C14.7506 11.7836 14.1236 11.5075 13.7394 11.2821Z" fill="#C19E7B"/>
</svg>
